<?xml version="1.0" encoding="UTF-8" standalone="no"?><!-- Generator: Gravit.io --><svg xmlns="http://www.w3.org/2000/svg" xmlns:xlink="http://www.w3.org/1999/xlink" style="isolation:isolate" viewBox="0 0 10 10" width="10pt" height="10pt"><defs><clipPath id="_clipPath_WjtjLfS7EaqqDuWmX67sICfQyaSTTNrx"><rect width="10" height="10"/></clipPath></defs><g clip-path="url(#_clipPath_WjtjLfS7EaqqDuWmX67sICfQyaSTTNrx)"><clipPath id="_clipPath_nHJ7HMVr4dHX7o9Q9YSo0RQNsG8kz04m"><rect x="1.5" y="1.5" width="7" height="7" transform="matrix(1,0,0,1,0,0)" fill="rgb(255,255,255)"/></clipPath><g clip-path="url(#_clipPath_nHJ7HMVr4dHX7o9Q9YSo0RQNsG8kz04m)"><g><rect x="1.5" y="1.5" width="7" height="7" transform="matrix(1,0,0,1,0,0)" fill="none"/><g><g><g><rect x="3.324" y="2.828" width="0.875" height="4.374" transform="matrix(0.707,-0.707,0.707,0.707,-2.444,4.129)" fill="rgb(235,235,235)"/><rect x="4.05" y="4.578" width="4.374" height="0.875" transform="matrix(0.707,-0.707,0.707,0.707,-1.72,5.879)" fill="rgb(235,235,235)"/></g></g><path d=" M 7.475 3.779 C 7.304 3.607 7.304 3.331 7.475 3.159 C 7.646 2.988 7.922 2.988 8.094 3.159 C 8.265 3.331 8.265 3.607 8.094 3.779 C 7.922 3.949 7.646 3.949 7.475 3.779 Z " fill="rgb(235,235,235)"/><path d=" M 1.906 3.779 C 1.735 3.607 1.735 3.331 1.906 3.159 C 2.078 2.988 2.354 2.988 2.526 3.159 C 2.696 3.331 2.696 3.607 2.526 3.779 C 2.354 3.949 2.078 3.949 1.906 3.779 Z " fill="rgb(235,235,235)"/></g></g></g></g></svg>